# xmcd CD database file generated by OrangeCD 5.2
#
# Track frame offsets:
#	150
#	12947
#	25432
#	56795
#	82635
#	95820
#	122340
#	134792
#	152545
#	170000
#	181472
#	194975
#	213172
#	232030
#
# Disc length: 3273 seconds
#
# Revision: 0
# Processed by: cddbd v1.5.1PL0 Copyright (c) Steve Scherf et al.
# Submitted via: OrangeCD 5.2
#
DISCID=c50cc70e
DTITLE=Various Artist - Cruizin' To Motown  Volume 2
DYEAR=1999
DGENRE=Motown Compilation
TTITLE0=The Miracles - You Really Got A Hold On Me
TTITLE1=Mary Wells - Two Lovers
TTITLE2=The Temptations - Papa Was A Rolling Stone
TTITLE3=The Mary Jane Girls - All Night Long
TTITLE4=Four Tops - Reach Out
TTITLE5=De Barge - All This Love
TTITLE6=Smokey Robinson - Ooh Baby Baby
TTITLE7=The Jackson 5 - I'll Be There
TTITLE8=The Temptations - Just My Imagination
TTITLE9=The Temptations - Ain't Too Proud To Beg
TTITLE10=Marvin Gaye and Tammi Terrell - Your Precious Love
TTITLE11=The Commodores - Lady
TTITLE12=The Commodores - Easy
TTITLE13=Four Tops - Ain't No Woman Like The One I Got
EXTD=
EXTT0=
EXTT1=
EXTT2=
EXTT3=
EXTT4=
EXTT5=
EXTT6=
EXTT7=
EXTT8=
EXTT9=
EXTT10=
EXTT11=
EXTT12=
EXTT13=
PLAYORDER=
